<?xml version="1.0" encoding="UTF-8"?>
<svg version="1.1" xmlns="http://www.w3.org/2000/svg" width="1080" height="1080">
<path d="M0 0 C356.4 0 712.8 0 1080 0 C1080 356.4 1080 712.8 1080 1080 C723.6 1080 367.2 1080 0 1080 C0 723.6 0 367.2 0 0 Z " fill="#79A5F2" transform="translate(0,0)"/>
<path d="M0 0 C6.81179448 4.01372524 13.67569268 7.9331217 20.546875 11.84375 C30.2224236 17.3550799 39.85971419 22.9280061 49.46875 28.5546875 C57.1326127 33.03541146 64.83366335 37.44881752 72.546875 41.84375 C82.22168719 47.35638835 91.85969637 52.92799567 101.46875 58.5546875 C109.1326127 63.03541146 116.83366335 67.44881752 124.546875 71.84375 C133.24089186 76.79753823 141.91184729 81.78753369 150.546875 86.84375 C159.1420479 91.8756479 167.76999722 96.84764124 176.421875 101.78125 C187.65375591 108.1862849 198.86423935 114.62716366 210.05859375 121.09765625 C213.96761402 123.35682338 217.87968076 125.61048939 221.79644775 127.85618591 C223.55664517 128.86549667 225.31624396 129.87584355 227.07568359 130.88647461 C229.26886896 132.14580473 231.46312065 133.40328057 233.65869141 134.65844727 C255.82529892 147.40059783 255.82529892 147.40059783 259.546875 154.84375 C259.54907484 153.69522175 259.54907484 153.69522175 259.55131912 152.52349091 C259.58839942 133.87739332 259.64743036 115.2314829 259.73077774 96.58553314 C259.77055704 87.56841236 259.80295516 78.55137871 259.81787109 69.53417969 C259.83089337 61.67315359 259.85787269 53.8123193 259.90148807 45.95140123 C259.92409001 41.79053724 259.93978645 37.62990971 259.93875885 33.46897888 C259.93801148 29.54870935 259.95599264 25.62896228 259.98804283 21.70882797 C259.99652806 20.27381144 259.9983011 18.8387362 259.99267769 17.4037056 C259.96170118 8.28024386 260.33748163 1.73482651 266.4765625 -5.3984375 C270.33192025 -8.63446067 273.47452568 -11.26112953 278.546875 -12.15625 C279.64515625 -12.36507813 279.64515625 -12.36507813 280.765625 -12.578125 C290.62740438 -13.58806626 298.40556112 -7.95121187 306.546875 -3.15625 C308.38479807 -2.0926803 310.22336818 -1.03022816 312.0625 0.03125 C316.10875246 2.37506416 320.14511747 4.73495332 324.17578125 7.10546875 C330.57154253 10.86495964 336.99324057 14.57831789 343.421875 18.28125 C344.50138428 18.90338379 345.58089355 19.52551758 346.69311523 20.16650391 C348.8835225 21.42872833 351.07403372 22.69077237 353.26464844 23.95263672 C358.69347442 27.08055148 364.12006781 30.21233448 369.546875 33.34375 C371.71353083 34.59376879 373.8801975 35.84376878 376.046875 37.09375 C395.546875 48.34375 395.546875 48.34375 415.046875 59.59375 C416.11953613 60.21258057 417.19219727 60.83141113 418.29736328 61.46899414 C420.46244571 62.71810518 422.62748482 63.96729129 424.79248047 65.21655273 C430.23303206 68.35577309 435.67434716 71.49365563 441.1171875 74.62890625 C451.56893699 80.65122329 462.00987048 86.69044337 472.421875 92.78125 C481.09949741 97.85650123 489.81293068 102.86633767 498.546875 107.84375 C508.25862831 113.37840868 517.93850196 118.96429542 527.58520508 124.61181641 C533.97993596 128.35359019 540.39241508 132.06295282 546.81689453 135.75341797 C551.14760291 138.24393108 555.47066893 140.74750533 559.79248047 143.25341797 C562.14244765 144.61024178 564.50073046 145.95044984 566.86328125 147.28515625 C574.1055986 151.49542265 579.81877596 155.65945288 582.546875 163.84375 C583.22683378 172.05555994 582.39604061 177.99686213 577.3828125 184.765625 C574.54075336 188.10101493 571.16485009 190.18216735 567.359375 192.28125 C566.63161865 192.69608643 565.9038623 193.11092285 565.15405273 193.53833008 C563.52254516 194.46815007 561.88835173 195.39326812 560.25195312 196.31445312 C556.27940078 198.56030763 552.33303319 200.85086404 548.38354492 203.13696289 C545.04578951 205.0680377 541.70499918 206.99376005 538.36328125 208.91796875 C531.75572471 212.72294815 525.15096474 216.5327574 518.546875 220.34375 C512.02455061 224.10740365 505.50173737 227.87019623 498.9765625 231.62890625 C488.52481301 237.65122329 478.08387952 243.69044337 467.671875 249.78125 C458.40187723 255.20296178 449.08855748 260.54579915 439.75842285 265.86297607 C430.6340466 271.06420129 421.54554726 276.32402878 412.47998047 281.62719727 C401.95602875 287.78141742 391.39307363 293.86744996 380.82910156 299.95263672 C375.40027558 303.08055148 369.97368219 306.21233448 364.546875 309.34375 C362.38021917 310.59376879 360.2135525 311.84376878 358.046875 313.09375 C356.974375 313.7125 355.901875 314.33125 354.796875 314.96875 C351.546875 316.84375 348.296875 318.71875 345.046875 320.59375 C343.43619141 321.5230835 343.43619141 321.5230835 341.79296875 322.47119141 C339.63953991 323.71342962 337.48589616 324.95529537 335.33203125 326.19677734 C330.30480745 329.09504803 325.27966498 331.99673072 320.26245117 334.91229248 C318.49712289 335.93790628 316.73109029 336.96229664 314.96484375 337.98632812 C312.7577118 339.26646466 310.55188577 340.54885666 308.34765625 341.83398438 C288.04177413 353.59891608 288.04177413 353.59891608 276.546875 351.84375 C270.37540878 349.86233669 266.71267504 346.57760168 263.51953125 341.00390625 C261.23851188 335.93802789 260.29459479 331.60958507 260.2684021 326.04800415 C260.2626097 325.38950922 260.2568173 324.7310143 260.25084937 324.05256498 C260.23392981 321.86002532 260.2309799 319.66769718 260.22802734 317.47509766 C260.21872359 315.89787281 260.20855425 314.32065287 260.19758606 312.74343872 C260.17032235 308.47121339 260.15514742 304.19902096 260.14215803 299.92673159 C260.12651161 295.45838942 260.0997262 290.9901143 260.0741272 286.52182007 C260.02736618 278.06471214 259.99060911 269.60759157 259.95745432 261.15042055 C259.91921403 251.52043526 259.86980885 241.89051735 259.81947017 232.26058888 C259.71619013 212.4550257 259.62691694 192.64941984 259.546875 172.84375 C258.91722336 173.79998764 258.28757172 174.75622528 257.63883972 175.74143982 C252.27433977 183.69680477 243.94763037 187.70894086 235.734375 192.28125 C234.48598945 192.98405471 233.23811396 193.68776612 231.99072266 194.39233398 C229.42835663 195.83932077 226.86434561 197.28332615 224.29931641 198.72558594 C218.64840959 201.9088534 213.03554288 205.15790368 207.421875 208.40625 C205.27348916 209.64722486 203.12505164 210.88811024 200.9765625 212.12890625 C199.91663086 212.74137207 198.85669922 213.35383789 197.76464844 213.98486328 C192.36016855 217.10699605 186.95340088 220.22516204 181.546875 223.34375 C179.3801975 224.59373122 177.21353083 225.84373121 175.046875 227.09375 C153.38020833 239.59375 131.71354167 252.09375 110.046875 264.59375 C108.97453613 265.21241943 107.90219727 265.83108887 106.79736328 266.46850586 C104.62911236 267.7193948 102.46081803 268.97020852 100.29248047 270.22094727 C94.89969585 273.33173335 89.50765407 276.44379238 84.1171875 279.55859375 C72.31058016 286.37877637 60.486605 293.1669826 48.64215088 299.92111206 C39.61099794 305.07287335 30.61913292 310.28882122 21.64648438 315.54174805 C10.45576721 322.08362687 -0.80450758 328.50331459 -12.07128906 334.91308594 C-14.48343038 336.29015882 -16.89144812 337.67312355 -19.29589844 339.06347656 C-19.9315976 339.42994293 -20.56729675 339.7964093 -21.22225952 340.17398071 C-22.44686937 340.88023782 -23.67026189 341.58861126 -24.89224243 342.29940796 C-31.70348485 346.22101734 -37.67676239 346.65359605 -45.453125 345.84375 C-51.78897858 343.50683739 -56.10801179 338.68356017 -59.56968361 333.01553416 C-60.6828727 330.27895597 -60.70747343 328.11211106 -60.71318722 325.1577034 C-60.72025281 323.99121867 -60.7273184 322.82473395 -60.7345981 321.6229012 C-60.73218302 320.34043279 -60.72976793 319.05796439 -60.72727966 317.7366333 C-60.73173146 316.36119633 -60.73704531 314.98576193 -60.74314839 313.6103313 C-60.75734604 309.82666822 -60.75899135 306.04308722 -60.75855148 302.25940132 C-60.76019814 298.18019024 -60.77326186 294.10101312 -60.78474426 290.02182007 C-60.80760538 281.1003172 -60.8155161 272.1788381 -60.82057071 263.25730991 C-60.8238265 257.68718931 -60.83034827 252.11707562 -60.8375721 246.54695892 C-60.85713964 231.12635648 -60.87354289 215.70576047 -60.87644863 200.28514481 C-60.8766362 199.29811563 -60.87682377 198.31108645 -60.87701702 197.2941473 C-60.87738328 195.29317459 -60.87774698 193.29220187 -60.87810814 191.29122916 C-60.87829095 190.29793604 -60.87847376 189.30464291 -60.87866211 188.28125 C-60.87884266 187.28674516 -60.87902321 186.29224031 -60.87920923 185.26759896 C-60.88275105 169.15214734 -60.90977327 153.03682934 -60.94716 136.92142406 C-60.98523301 120.37787008 -61.00460604 103.83438241 -61.00490814 87.29078364 C-61.00549295 78.00137819 -61.01399976 68.7121321 -61.04290581 59.42276764 C-61.06740627 51.51278114 -61.07471167 43.60301213 -61.05965828 35.69299796 C-61.05248379 31.65748891 -61.05336958 27.62240942 -61.07606888 23.58694839 C-61.09666181 19.89052204 -61.09405648 16.19485541 -61.07319403 12.49843726 C-61.06804773 10.53212177 -61.08747641 8.56578903 -61.10785574 6.59957242 C-61.02966375 -1.62532147 -59.65766682 -6.6365991 -54.04585832 -12.66898417 C-37.51701178 -28.0101108 -14.86372822 -8.76889564 0 0 Z " fill="#FEFEFE" transform="translate(319.453125,392.15625)"/>
<path d="M0 0 C0.33 0 0.66 0 1 0 C1 168.63 1 337.26 1 511 C-169.61 511 -340.22 511 -516 511 C-516 510.67 -516 510.34 -516 510 C-515.19183838 509.95512451 -514.38367676 509.91024902 -513.55102539 509.86401367 C-481.15324052 508.05696896 -481.15324052 508.05696896 -449.16015625 502.87109375 C-445.76428546 502.13692153 -442.35468722 501.51571952 -438.93359375 500.91015625 C-417.18466958 497.05553798 -395.92197545 492.11064669 -375 485 C-373.17831299 484.38511719 -373.17831299 484.38511719 -371.31982422 483.7578125 C-351.47197763 477.03535751 -332.09110753 469.67139738 -313 461 C-311.98905273 460.54270508 -310.97810547 460.08541016 -309.93652344 459.61425781 C-295.15574483 452.87631837 -281.01176541 445.20653751 -267 437 C-266.11119141 436.48260254 -265.22238281 435.96520508 -264.30664062 435.43212891 C-252.86001031 428.75209947 -241.79080274 421.69258136 -231 414 C-229.90558594 413.22438721 -229.90558594 413.22438721 -228.7890625 412.43310547 C-210.81550999 399.67755743 -193.77263822 386.07471227 -177.4765625 371.23046875 C-176.11060587 370.00024598 -174.73810097 368.77675254 -173.33911133 367.58422852 C-167.61185294 362.68175404 -162.27022882 357.42296809 -156.9543457 352.0847168 C-155.4400742 350.56508332 -153.9205257 349.05087483 -152.40039062 347.53710938 C-147.05593806 342.19631068 -141.90706781 336.74880641 -137 331 C-135.54554483 329.39231627 -134.08779105 327.78760285 -132.625 326.1875 C-127.89756303 320.93567506 -123.40189742 315.52595623 -119 310 C-118.48808105 309.360625 -117.97616211 308.72125 -117.44873047 308.0625 C-108.95600884 297.42364802 -101.02604125 286.50827819 -93.46679688 275.18847656 C-92.13187864 273.19676434 -90.78107351 271.21737223 -89.421875 269.2421875 C-82.06608362 258.49152858 -75.49742576 247.28457953 -69 236 C-68.5241748 235.17902832 -68.04834961 234.35805664 -67.55810547 233.51220703 C-45.51671867 195.29408661 -29.75408899 153.4455096 -18 111 C-17.77014404 110.1860376 -17.54028809 109.3720752 -17.3034668 108.53344727 C-7.43267156 73.40885042 -1.76951068 36.42751304 0 0 Z " fill="#FEFEFE" transform="translate(1079,569)"/>
<path d="M0 0 C170.61 0 341.22 0 517 0 C517 168.63 517 337.26 517 511 C516.67 511 516.34 511 516 511 C515.92483154 510.18660156 515.84966309 509.37320312 515.7722168 508.53515625 C507.9326326 424.24925633 487.39228497 344.81060099 415 225 C414.41476562 224.18418457 413.82953125 223.36836914 413.2265625 222.52783203 C406.01139346 212.47503783 398.5191286 202.84774935 390.34765625 193.55810547 C388.23085778 191.11074898 386.21369288 188.58497323 384.1875 186.0625 C381.22194597 182.40765503 378.15753618 179.02501087 374.76538086 175.76611328 C373.07630524 174.07633689 371.53599685 172.33018194 369.9921875 170.5078125 C365.62415014 165.48474237 360.95464647 160.76857618 356.24951172 156.06420898 C354.76106763 154.57358385 353.28082723 153.07512983 351.80078125 151.57617188 C346.24550154 145.98904636 340.53251783 140.82506884 334.36669922 135.90112305 C331.68421406 133.74633535 329.1878964 131.48671895 326.6875 129.125 C320.40576534 123.3660049 313.78360367 118.14841916 307 113 C306.30938477 112.47422363 305.61876953 111.94844727 304.90722656 111.40673828 C284.85513386 96.20827572 263.90798788 82.37336894 242 70 C241.01370605 69.44103027 240.02741211 68.88206055 239.01123047 68.30615234 C199.02254422 45.80260322 155.79451517 28.53833225 111.22900391 17.56054688 C108.96074938 16.99012931 106.70535435 16.38211321 104.44921875 15.765625 C91.71771398 12.34724895 78.84200303 10.17623527 65.8359375 8.11328125 C61.73077964 7.46122083 57.65318332 6.75627233 53.58203125 5.91796875 C36.08173322 2.32032782 17.79758317 2.05570253 0 1 C0 0.67 0 0.34 0 0 Z " fill="#FEFEFE" transform="translate(563,0)"/>
<path d="M0 0 C0.33 0 0.66 0 1 0 C1.02578125 1.25425781 1.0515625 2.50851562 1.078125 3.80078125 C1.43081597 16.23372203 2.46383935 28.52502003 3.875 40.875 C3.95609009 41.59877838 4.03718018 42.32255676 4.12072754 43.06826782 C5.332651 53.79561287 7.00884667 64.3909286 9 75 C9.20173828 76.08667969 9.40347656 77.17335938 9.61132812 78.29296875 C18.03244729 122.93364198 32.09162946 165.70314688 51 207 C51.57766113 208.27496338 51.57766113 208.27496338 52.16699219 209.57568359 C65.71896076 239.41274061 82.77661715 267.49396463 102 294 C102.59055176 294.82113281 103.18110352 295.64226562 103.78955078 296.48828125 C110.72515388 306.12283224 117.82851893 315.49951599 125.64355469 324.4375 C127.05193697 326.0598266 128.43808517 327.69909843 129.8203125 329.34375 C145.76896739 348.27439001 162.91998027 367.81351273 182.5078125 383.0078125 C185.43235583 385.34561359 188.14782949 387.87685078 190.875 390.4375 C196.34958288 395.52989004 202.12185936 400.14533462 208.12304688 404.60302734 C210.15746485 406.11719743 212.18000097 407.646559 214.203125 409.17578125 C233.62075574 423.76207061 253.86499706 437.03979592 275 449 C275.9374707 449.53189941 276.87494141 450.06379883 277.84082031 450.61181641 C330.76066068 480.43854877 389.10098875 500.90606121 449 511 C450.28970703 511.21946289 450.28970703 511.21946289 451.60546875 511.44335938 C473.58356856 515.11787685 495.73025066 517.34699421 518 518 C518 518.33 518 518.66 518 519 C347.06 519 176.12 519 0 519 C0 347.73 0 176.46 0 0 Z " fill="#FEFEFE" transform="translate(0,561)"/>
<path d="M0 0 C170.94 0 341.88 0 518 0 C518 0.33 518 0.66 518 1 C516.22689453 1.03867187 516.22689453 1.03867187 514.41796875 1.078125 C502.16124967 1.44619099 490.04867577 2.53234469 477.875 3.9375 C477.12809906 4.02286011 476.38119812 4.10822021 475.61166382 4.19616699 C466.69707098 5.2221347 457.83449624 6.41187046 449 8 C448.0394873 8.16927002 447.07897461 8.33854004 446.08935547 8.51293945 C419.88218182 13.19880455 394.31249446 19.76908825 369 28 C368.15131348 28.27247559 367.30262695 28.54495117 366.42822266 28.82568359 C331.52246633 40.12600649 297.48237252 56.26904289 266 75 C265.10877441 75.52948242 264.21754883 76.05896484 263.29931641 76.60449219 C244.38909364 87.91418731 226.46917039 100.58747797 209 114 C208.37867188 114.47566406 207.75734375 114.95132813 207.1171875 115.44140625 C199.44624641 121.33102001 192.12372572 127.45117145 185 134 C183.6707762 135.17134665 182.33761593 136.33824593 181 137.5 C172.67349556 144.77036297 164.60260599 152.23365487 156.8034668 160.06616211 C155.30695075 161.56806925 153.805117 163.06451062 152.30273438 164.56054688 C146.99093348 169.86830044 141.86627915 175.27718191 137 181 C135.96665376 182.17997297 134.93151574 183.35837937 133.89453125 184.53515625 C90.20930889 234.42407273 55.62559105 292.67401233 33 355 C32.63535645 355.99902344 32.27071289 356.99804688 31.89501953 358.02734375 C26.99816832 371.52305681 22.64558075 385.11329196 19 399 C18.7230127 400.0533252 18.44602539 401.10665039 18.16064453 402.19189453 C8.99853917 437.50662411 3.31380027 473.58864993 1 510 C0.67 510 0.34 510 0 510 C0 341.7 0 173.4 0 0 Z " fill="#FEFEFE" transform="translate(0,0)"/>
</svg>
